#tb 0: 1/10
#media_type 0: video
#codec_id 0: rawvideo
#dimensions 0: 768x576
#sar 0: 0/1
0,          0,          0,        1,  1327104, 0xa73c232d
0,          1,          1,        1,  1327104, 0xa73c232d
0,          2,          2,        1,  1327104, 0xa73c232d
0,          3,          3,        1,  1327104, 0xf14e05be
0,          4,          4,        1,  1327104, 0xd8c03726
0,          5,          5,        1,  1327104, 0x16e8447a
0,          6,          6,        1,  1327104, 0x8dfd94d2
0,          7,          7,        1,  1327104, 0x3550833b
0,          8,          8,        1,  1327104, 0x74bd2959
0,          9,          9,        1,  1327104, 0xc2b4505c
0,         10,         10,        1,  1327104, 0x7c6999cd
0,         11,         11,        1,  1327104, 0xb6562711
0,         12,         12,        1,  1327104, 0x50993565
0,         13,         13,        1,  1327104, 0x579549d2
0,         14,         14,        1,  1327104, 0xb17170f6
0,         15,         15,        1,  1327104, 0xc7d87708
0,         16,         16,        1,  1327104, 0xdb3879da
0,         17,         17,        1,  1327104, 0xdb3879da
0,         18,         18,        1,  1327104, 0xdb3879da
0,         19,         19,        1,  1327104, 0x6f1c5c01
0,         20,         20,        1,  1327104, 0xd9d15c01
0,         21,         21,        1,  1327104, 0x826f0bab
0,         22,         22,        1,  1327104, 0xf25b041d
0,         23,         23,        1,  1327104, 0xc85a041d
0,         24,         24,        1,  1327104, 0xc85a041d
0,         25,         25,        1,  1327104, 0xc85a041d
0,         26,         26,        1,  1327104, 0xc85a041d
0,         27,         27,        1,  1327104, 0xc54cc6ae
